<svg viewBox="0 0 1920 716" fill="none" xmlns="http://www.w3.org/2000/svg">
<g clip-path="url(#clip0_231_2)">
<path d="M351.974 610.967C354.307 607.491 356.38 603.8 359.028 600.583C365.082 593.227 372.023 586.521 377.392 578.716C380.235 574.583 380.984 568.785 381.905 563.601C383.901 552.36 385.31 541.017 387.135 529.744C388.252 522.843 390.434 516.028 390.761 509.11C391.035 503.329 394.098 502.304 398.418 502.03C427.512 500.184 455.138 492.662 481.66 480.759C500.052 472.506 517.138 462.156 532.437 449.002C537.95 444.261 543.09 439.085 549.026 433.897C560.87 424.113 567.607 411.578 573.406 398.084C580.407 392.73 587.121 387.546 593.765 382.275C609.263 369.981 624.728 357.645 640.521 345.183C646.654 340.498 652.472 335.955 658.95 330.896C653.708 326.885 649.305 323.443 644.827 320.101C629.017 308.299 613.181 296.531 597.25 284.388C594.246 275.092 591.271 266.195 586.071 258.056C584.36 259.151 583.221 259.833 582.13 260.584C559.089 276.453 536.061 292.343 513.012 308.202C478.03 332.272 443.033 356.322 407.764 380.156C401.377 370.796 395.289 361.648 389.156 352.531C381.168 340.659 373.144 328.811 365.089 316.592C365.276 315.842 365.415 315.317 365.756 315.083C374.542 309.044 383.349 303.034 392.521 297.028C396.625 294.728 400.361 292.42 404.416 289.992C429.264 273.678 453.806 257.506 478.285 241.237C479.831 240.21 480.878 238.432 482.158 237.003C491.952 230.655 501.816 224.412 511.528 217.942C547.823 193.761 584.066 169.504 620.34 145.295C621.138 144.763 622.084 144.455 623.319 143.874C633.635 153.688 641.989 165.149 650.033 176.923C663.557 196.719 673.635 218.205 681.603 240.7C684.369 248.51 686.06 256.7 688.581 265.233C689.171 266.228 689.422 266.708 689.674 267.188C689.674 267.188 689.784 267.591 689.803 268.155C690.189 269.829 690.557 270.941 690.926 272.052C690.926 272.052 690.995 271.997 690.895 272.448C692.23 282.752 693.484 292.634 695.136 302.45C699.832 330.357 698.519 358.2 693.415 385.803C681.246 451.614 646.661 503.132 591.289 540.168C519.001 588.518 438.349 609.684 351.974 610.967Z" fill="#F57D00"/>
<path d="M25.878 268.916C30.565 254.694 34.9255 240.355 40.0148 226.278C47.7771 204.809 59.2448 185.203 73.3863 167.442C83.7536 154.421 95.086 141.98 107.237 130.616C122.498 116.343 139.712 104.459 157.879 93.9115C184.75 78.3099 213.099 66.2287 242.612 56.8097C264.459 49.8374 286.596 43.8379 309.425 41.0489C323.261 39.3586 337.174 38.2909 351.059 37.0171C355.978 36.5658 360.921 35.9978 365.847 36.0558C391.499 36.3577 416.895 38.6552 442.143 43.7548C466.795 48.7341 490.38 56.7822 513.857 65.4041C514.89 65.7837 515.755 66.6245 516.453 67.7235C491.821 81.1573 467.435 94.1181 442.764 106.856C405.552 92.6683 367.37 88.3927 328.166 91.6024C324.517 91.9012 320.327 91.7978 317.153 90.2811C312.257 87.9418 308.057 84.1685 303.501 81.0928C293.028 74.0217 282.518 67.0044 271.666 59.9888C262.344 65.6815 253.328 71.2688 244.43 77.0379C228.577 87.3156 212.795 97.7032 196.757 108.338C193.301 123.395 190.071 138.16 186.575 153.117C178.64 161.403 170.312 168.974 163.414 177.678C134.251 214.477 120.04 256.424 122.163 303.503C122.534 311.729 124.561 319.88 125.823 328.065C129.666 341.964 132.694 356.156 137.561 369.687C143.347 385.772 151.094 401.042 161.857 414.619C172.156 427.611 183.446 439.643 197.189 448.888C209.717 457.316 223.02 464.589 235.879 472.537C237.27 473.397 238.58 475.234 238.912 476.829C242.992 496.397 246.992 515.982 250.788 535.606C254.341 553.97 257.62 572.386 261.046 590.774C261.191 591.554 261.597 592.287 261.466 593.373C260.725 593.64 260.394 593.593 260.073 593.51C217.559 582.484 179.309 562.624 144.03 536.871C93.3343 499.864 55.8359 452.605 34.9096 393.064C23.7273 361.247 17.7811 328.57 22.7861 294.629C24.045 286.092 24.8594 277.489 25.878 268.916Z" fill="#F57D00"/>
<path d="M1085.03 606.709C1085.01 542.254 1085.01 478.274 1085.01 414.293C1084.77 414.267 1084.54 414.241 1084.3 414.215C1073.83 479.31 1063.35 544.405 1052.79 610C1040.35 610 1028.05 610 1015.76 610C1004.71 610 1005.09 609.959 1003.9 599.091C1002.6 587.202 1000.59 575.388 998.753 563.561C996.92 551.749 994.914 539.963 993.004 528.163C990.362 511.835 987.679 495.512 985.126 479.17C983.001 465.565 981.045 451.933 979.001 438.314C977.593 428.942 976.163 419.573 974.028 410.225C974.028 476.304 974.028 542.383 974.028 608.729C955.557 608.729 937.636 608.729 919.357 608.729C919.357 505.952 919.357 403.255 919.357 300.279C947.765 300.279 976.023 300.279 1005.05 300.279C1012.88 351.97 1020.72 403.757 1028.57 455.545C1028.93 455.502 1029.3 455.459 1029.67 455.417C1032.12 438.263 1034.45 421.093 1037.05 403.962C1039.53 387.607 1042.39 371.31 1044.88 354.958C1047.06 340.692 1048.98 326.386 1050.99 312.095C1051.4 309.167 1051.34 306.106 1052.22 303.338C1052.66 301.956 1054.74 300.153 1056.09 300.144C1083.08 299.968 1110.08 300.025 1137.08 300.053C1137.54 300.053 1138 300.281 1138.72 300.47C1138.72 403.083 1138.72 505.661 1138.72 608.604C1137.47 608.734 1136.2 608.979 1134.94 608.982C1119.77 609.008 1104.61 609.049 1089.45 608.92C1087.97 608.908 1086.51 607.789 1085.03 606.709Z" fill="#7C7C7C"/>
<path d="M370.08 475.005C372.347 485.338 374.613 495.67 376.444 506.459C355.169 521.04 334.34 535.182 313.465 549.256C311.882 550.323 309.971 550.904 308.148 551.331C304.525 535.696 301.028 520.428 297.395 505.191C292.343 484.004 287.079 462.867 282.112 441.66C277.403 421.553 273.077 401.357 268.371 381.25C263.404 360.031 258.084 338.894 253.11 317.676C247.914 295.511 243.002 273.28 237.865 251.101C232.99 230.047 227.957 209.029 223.048 187.982C220.163 175.608 217.507 163.18 214.523 150.83C211.862 139.815 208.891 128.875 206.037 117.551C206.066 116.502 206.114 115.803 206.507 115.046C209.096 113.584 211.389 112.252 213.576 110.764C233.098 97.4883 252.601 84.1849 272.395 71.0676C318.456 102.781 364.225 134.328 410.026 165.827C412.888 167.795 416.003 169.396 419 171.167C439.602 185.541 460.204 199.914 480.81 214.89C455.181 230.431 429.548 245.369 403.61 260.142C369.923 235.224 336.541 210.471 303.159 185.719C304.813 197.673 307.167 208.785 309.871 219.81C311.706 227.298 314.032 234.665 316.082 242.49C322.972 273.492 329.919 304.089 336.954 335.069C343.808 330.339 349.953 326.098 355.99 321.932C359.061 326.464 361.953 330.732 364.907 335.368C367.574 340.332 370.032 345.018 372.81 349.506C380.765 362.357 388.851 375.127 396.588 388.086C384.097 396.577 371.949 404.979 359.674 413.192C356.817 415.103 355.688 416.906 356.674 420.524C358.896 428.68 360.487 437.006 362.5 445.222C364.938 455.172 367.546 465.08 370.08 475.005Z" fill="#9E9E9E"/>
<path d="M1464.78 477.709C1457.28 484.111 1450.03 490.254 1442.17 496.907C1459.78 533.428 1477.86 570.919 1496.22 608.995C1473.04 608.995 1450.89 609.044 1428.73 608.877C1427.37 608.867 1425.36 607.464 1424.75 606.186C1417 589.719 1409.46 573.152 1401.84 556.622C1397.71 547.681 1393.55 538.759 1389.39 529.837C1385.54 521.572 1381.66 513.318 1377.12 505.172C1377.12 539.526 1377.12 573.879 1377.12 608.616C1357.67 608.616 1338.63 608.616 1319.29 608.616C1319.29 505.942 1319.29 403.362 1319.29 300C1321.19 300 1323.11 300 1325.03 300C1357.03 300 1389.03 299.562 1421.01 300.278C1430.12 300.482 1439.42 303.248 1448.15 306.266C1458.28 309.773 1463.92 318.693 1469.2 327.539C1478.35 342.853 1483.2 359.398 1485.16 377.148C1488.1 403.67 1486.81 429.735 1477.83 454.917C1474.98 462.93 1469.38 469.966 1464.78 477.709ZM1393.42 371C1388.01 371 1382.59 371 1377.32 371C1377.32 392.096 1377.32 412.34 1377.32 433.453C1385.89 432.949 1394.31 433.459 1402.27 431.78C1419.67 428.109 1427.76 413.693 1426.82 400.099C1425.53 381.521 1409.76 370.147 1393.42 371Z" fill="#7C7C7C"/>
<path d="M1858.72 596.775C1839.84 612.063 1818.35 618.226 1794.83 615.777C1778.58 614.085 1764.62 606.294 1752.65 595.144C1739.5 582.895 1728.39 569.146 1720.88 552.646C1713.65 536.755 1708.94 520.176 1705.91 502.999C1702.52 483.853 1701.08 464.553 1702.16 445.24C1703.66 418.707 1705.63 392.125 1714.96 366.821C1722.95 345.186 1734.54 325.806 1752.07 310.585C1763.34 300.804 1777.16 295.803 1791.63 293.092C1811.48 289.373 1829.81 293.871 1846.61 304.91C1857.78 312.246 1866.68 321.941 1874.71 332.433C1890.42 352.965 1897.86 376.873 1903.11 401.8C1908.22 426.08 1907.88 450.649 1906.66 475.045C1905.53 497.395 1902.95 519.884 1894.88 541.141C1886.9 562.148 1875.87 581.26 1858.72 596.775ZM1783.66 374.086C1780.44 378.405 1776.74 382.452 1774.08 387.091C1764.35 404.026 1762.96 422.971 1762.11 441.841C1761.31 459.515 1762.08 477.176 1766 494.551C1769.68 510.854 1775.21 525.95 1789.68 536.312C1804.48 546.912 1816.39 543.619 1827.81 532.25C1837.23 522.873 1841.34 510.099 1844.04 497.082C1847.45 480.617 1848.05 463.916 1847.84 447.226C1847.73 438.405 1846.39 429.539 1844.92 420.809C1842.01 403.626 1837.35 387.352 1823.6 374.881C1811.33 363.749 1796.85 362.89 1783.66 374.086Z" fill="#7C7C7C"/>
<path d="M1151 392C1151 361.208 1151 330.915 1151 300.312C1202.36 300.312 1253.28 300.312 1304.6 300.312C1304.6 326.961 1304.6 353.666 1304.6 380.818C1272.98 380.818 1241.39 380.818 1209.4 380.818C1209.4 398.297 1209.4 415.337 1209.4 432.825C1238.36 432.825 1267.28 432.825 1296.6 432.825C1296.6 453.305 1296.6 473.344 1296.6 493.831C1267.63 493.831 1238.71 493.831 1209.39 493.831C1209.39 505.976 1209.39 517.683 1209.39 529.839C1241.04 529.839 1272.63 529.839 1304.61 529.839C1304.61 556.32 1304.61 582.358 1304.61 608.699C1253.62 608.699 1202.7 608.699 1151 608.699C1151 536.647 1151 464.573 1151 392Z" fill="#7C7C7C"/>
<path d="M1509.94 364.952C1517.65 345.483 1527.21 327.543 1542.35 313.247C1554.24 302.008 1568.74 295.841 1584.75 292.982C1605.64 289.249 1624.32 294.843 1640.72 307.516C1653.98 317.761 1664.53 330.752 1672.66 345.411C1683.82 365.562 1690.01 387.399 1693.04 410.176C1693.17 411.136 1693.7 412.038 1693.87 412.997C1694.02 413.787 1693.9 414.622 1693.9 415.718C1674.08 415.718 1654.47 415.718 1635.05 415.718C1632.69 408.286 1630.82 400.673 1627.88 393.495C1622.98 381.494 1614.66 372.305 1602.49 367.317C1592.96 363.412 1584.59 367.046 1577.45 373.197C1565.49 383.502 1560.96 397.78 1558.04 412.62C1554.6 430.1 1554.15 447.873 1555.18 465.535C1556.31 484.689 1558.44 503.955 1568.15 521.103C1574.49 532.31 1583.66 540.71 1596.99 542.741C1599.98 543.197 1603.48 541.94 1606.44 540.73C1617.82 536.072 1624.84 527.03 1628.81 515.879C1632.3 506.091 1634.63 495.891 1637.64 485.288C1655.04 485.288 1673.63 485.288 1693.11 485.288C1692.71 492.506 1692.78 499.742 1691.83 506.841C1689.8 521.974 1685.99 536.761 1679.87 550.743C1670.94 571.147 1659.92 590.371 1640.56 602.771C1620.43 615.67 1598.48 620.258 1575.14 612.996C1558.77 607.902 1545.76 597.612 1535.59 583.988C1528.84 574.949 1521.91 565.837 1516.71 555.893C1508.41 540.016 1504.2 522.659 1500.84 505.026C1496.67 483.202 1496.28 461.215 1497.24 439.26C1497.93 423.571 1500.47 407.914 1502.98 392.373C1504.47 383.231 1507.53 374.346 1509.94 364.952Z" fill="#7C7C7C"/>
<path d="M351.624 611.003C438.349 609.684 519.001 588.518 591.289 540.168C646.661 503.132 681.246 451.614 693.415 385.803C698.519 358.2 699.832 330.357 695.136 302.45C693.484 292.635 692.23 282.752 690.858 272.474C693.277 281.537 696.235 290.925 697.85 300.538C700.358 315.466 701.961 330.546 703.911 345.566C704.081 346.88 703.996 348.229 703.997 349.561C704.002 362.288 704.185 375.019 703.961 387.742C703.504 413.761 699.825 439.43 692.118 464.214C686.56 482.085 679.689 499.677 671.835 516.668C663.316 535.098 651.353 551.529 638.408 567.296C617.48 592.787 592.389 613.327 564.572 630.54C544.631 642.879 523.361 652.704 501.152 660.518C478.402 668.523 455.138 674.428 431.329 677.764C416.958 679.777 402.348 680.307 387.821 680.899C375.777 681.39 363.634 681.781 351.648 680.81C334.135 679.391 316.725 676.714 297.647 674.374C301.433 669.564 304.03 666.068 306.829 662.742C319.698 647.458 332.608 632.208 345.548 616.984C347.327 614.891 349.359 613.014 351.624 611.003Z" fill="#9A3F16"/>
<path d="M773 586C773 490.545 773 395.59 773 300.318C792.348 300.318 811.27 300.318 830.812 300.318C830.812 376.625 830.812 452.996 830.812 529.811C856.347 529.811 881.271 529.811 906.596 529.811C906.596 556.294 906.596 582.333 906.596 608.687C862.309 608.687 818.056 608.687 773 608.687C773 601.342 773 593.921 773 586Z" fill="#7C7C7C"/>
<path d="M25.5888 269.172C24.8594 277.489 24.045 286.092 22.7861 294.629C17.7811 328.57 23.7273 361.247 34.9096 393.064C55.8359 452.605 93.3343 499.864 144.03 536.871C179.309 562.624 217.559 582.484 260.073 593.51C260.394 593.593 260.725 593.64 261.415 593.763C266.578 618.291 271.378 642.761 276.349 668.102C272.616 667.616 269.697 667.499 266.909 666.833C234.013 658.965 202.814 646.843 173.295 630.215C156.139 620.552 139.781 609.766 124.795 597.098C97.8604 574.33 74.9516 548.021 57.124 517.434C41.9133 491.336 30.3787 463.694 23.8301 434.244C20.1976 417.908 17.6657 401.209 16.2284 384.537C14.7901 367.854 14.1273 350.914 15.3287 334.246C16.6735 315.589 20.4624 297.106 23.2685 278.56C23.734 275.484 24.6121 272.47 25.5888 269.172Z" fill="#9A3F16"/>
<path d="M886.001 250.007C892.481 260.534 898.894 270.698 905.763 281.584C903.498 281.772 902.128 281.983 900.757 281.985C886.594 282.009 872.427 281.808 858.271 282.125C854.397 282.212 852.188 280.899 850.373 277.819C839.878 260.02 829.332 242.251 818.784 224.484C818.559 224.104 818.107 223.86 817.274 223.122C817.274 242.816 817.274 262.005 817.274 281.596C802.486 281.596 788.098 281.596 773.354 281.596C773.354 223.057 773.354 164.345 773.354 105C775.063 105 776.829 105 778.594 105C801.588 105 824.586 104.769 847.575 105.105C857.843 105.256 868.16 106.344 877.031 112.505C887.411 119.715 892.698 130.518 895.731 142.079C897.782 149.898 897.907 158.374 897.889 166.555C897.842 188.635 889.406 205.921 868.256 215.339C867.232 215.795 866.312 216.48 865.168 217.163C872.149 228.083 879.042 238.863 886.001 250.007ZM817 163.5C817 171.247 817 178.994 817 187C821.131 187 824.608 186.868 828.072 187.027C835.92 187.385 842.312 184.855 847.724 178.909C856.752 168.991 854.492 153.456 844.076 146.008C835.86 140.132 826.623 140.71 817 141.27C817 148.583 817 155.541 817 163.5Z" fill="#F57D00"/>
<path d="M1283.94 114.993C1297.05 123.547 1307.88 133.807 1314.43 147.931C1319.04 157.884 1321.78 168.323 1323.11 179.274C1325.56 199.514 1324.1 219.501 1316.77 238.342C1307.25 262.833 1289.77 278.92 1263.01 284.129C1242.04 288.212 1223.18 284.078 1205.94 271.949C1188.53 259.697 1178.11 242.694 1174.13 221.973C1172.34 212.68 1170.89 203.068 1171.24 193.675C1171.87 177.237 1173.34 160.602 1181.2 145.68C1189.9 129.138 1202.2 116.252 1220.46 109.81C1239.66 103.034 1258.54 103.203 1277.29 111.153C1279.52 112.099 1281.49 113.654 1283.94 114.993ZM1227.49 155.007C1225 159.17 1221.81 163.074 1220.13 167.545C1214.87 181.57 1214.58 196.276 1217.25 210.734C1219.38 222.284 1223.62 232.756 1234.84 239.815C1245.26 246.367 1259.18 244.47 1266.72 236.656C1273.47 229.671 1277.08 221.195 1278.15 211.343C1279.83 195.824 1280.16 180.496 1273.88 165.873C1267.01 149.874 1245.05 137.934 1227.49 155.007Z" fill="#F57D00"/>
<path d="M206.057 117.902C208.891 128.875 211.862 139.815 214.523 150.83C217.507 163.18 220.163 175.608 223.048 187.982C227.957 209.029 232.99 230.047 237.865 251.101C243.001 273.28 247.914 295.511 253.11 317.676C258.084 338.894 263.404 360.031 268.371 381.25C273.077 401.357 277.403 421.553 282.112 441.66C287.079 462.867 292.343 484.004 297.395 505.191C301.028 520.428 304.525 535.696 308.108 551.792C308.022 554.291 308.054 555.974 307.777 557.605C303.997 579.88 300.138 602.142 296.376 624.42C293.86 639.32 291.467 654.241 289.019 669.153C288.363 668.484 287.263 667.901 287.115 667.135C280.11 630.857 273.179 594.566 266.257 558.272C258.216 516.115 250.194 473.955 242.159 431.798C236.545 402.336 230.903 372.88 225.307 343.415C217.516 302.391 209.756 261.362 201.987 220.334C199.86 209.102 197.748 197.867 195.347 185.887C198.728 162.728 202.393 140.315 206.057 117.902Z" fill="#3C3C3B"/>
<path d="M990 201.994C990 169.532 990 137.568 990 105.303C1004.72 105.303 1019.11 105.303 1034 105.303C1034 106.875 1034 108.324 1034 109.773C1034 145.932 1034.43 182.098 1033.78 218.245C1033.54 231.666 1032.12 245.561 1023.89 257.035C1012.44 272.994 997.373 283.315 977.128 285.056C951.31 287.276 931.385 276.869 917.798 255.685C913.04 248.266 910.562 238.205 910.33 229.266C909.266 188.364 909.367 147.432 909.063 106.511C909.061 106.206 909.236 105.901 909.418 105.3C923.392 105.3 937.445 105.3 952 105.3C952 107.215 952 108.998 952 110.782C952 144.607 951.897 178.434 952.086 212.258C952.124 219.099 953.447 225.725 957.817 231.606C966.428 243.195 981.269 239.64 986.052 229.985C990.408 221.191 989.944 211.835 990 201.994Z" fill="#F57D00"/>
<path d="M1067 282C1059.53 282 1052.56 282 1045.3 282C1045.3 222.936 1045.3 164.216 1045.3 105C1047.05 105 1048.67 105 1050.29 105C1071.12 105 1091.97 104.459 1112.77 105.249C1121.9 105.596 1131.26 107.708 1139.92 110.715C1152.01 114.914 1157.48 125.858 1161.87 136.951C1165.63 146.455 1167.48 156.53 1166.9 166.739C1165.99 182.845 1161.66 198.019 1150.87 210.448C1144.24 218.088 1134.75 221.154 1125.06 221.812C1113.36 222.606 1101.56 222 1089.28 222C1089.28 242.518 1089.28 261.911 1089.28 282C1081.69 282 1074.59 282 1067 282ZM1105.72 186.743C1106.31 186.494 1106.88 186.189 1107.49 186.006C1122.91 181.381 1128.45 163.38 1120.21 151.678C1113.09 141.579 1100.56 139.54 1089.25 141.764C1089.25 156.714 1089.25 171.644 1089.25 186.961C1094.62 186.961 1099.74 186.961 1105.72 186.743Z" fill="#F57D00"/>
<path d="M408.042 380.381C443.033 356.322 478.03 332.272 513.012 308.202C536.061 292.343 559.089 276.453 582.13 260.584C583.221 259.833 584.36 259.151 586.071 258.056C591.271 266.195 594.246 275.092 597.011 284.688C596.25 287.246 595.622 289.141 594.671 290.925C588.696 286.723 582.889 282.827 577.458 278.463C574.677 276.228 572.822 276.62 570.133 278.502C555.03 289.078 539.775 299.437 524.621 309.94C517.951 314.562 511.396 319.349 504.607 324.423C504.248 343.093 504.105 361.401 503.852 379.707C503.818 382.152 503.225 384.59 502.892 387.031C471.177 408.012 439.463 428.994 407.387 449.568C407.364 426.233 407.703 403.307 408.042 380.381Z" fill="#8B3200"/>
<path d="M419.416 171.099C416.003 169.396 412.888 167.795 410.026 165.827C364.225 134.328 318.456 102.781 272.391 70.6166C272.076 66.6469 272.05 63.3061 272.023 59.9653C282.518 67.0044 293.028 74.0217 303.501 81.0928C308.057 84.1685 312.257 87.9418 317.153 90.2811C320.327 91.7978 324.517 91.9012 328.166 91.6024C367.37 88.3927 405.552 92.6683 442.772 107.319C443.039 130.382 443.013 152.76 442.988 175.139C435.269 173.77 427.55 172.4 419.416 171.099Z" fill="#E74D0F"/>
<path d="M289.316 668.983C291.467 654.241 293.86 639.32 296.376 624.42C300.138 602.142 303.998 579.88 307.777 557.605C308.054 555.974 308.022 554.291 308.173 552.172C309.971 550.904 311.882 550.323 313.465 549.256C334.34 535.182 355.169 521.04 376.348 506.863C375.663 515.115 374.756 523.436 373.586 531.72C371.817 544.258 369.906 556.776 367.942 569.285C367.672 571.009 367.133 572.933 366.078 574.253C355.994 586.87 345.708 599.325 335.606 611.928C322.934 627.735 310.405 643.656 297.754 659.48C295.179 662.701 292.334 665.707 289.316 668.983Z" fill="#58595B"/>
<path d="M443.184 175.378C443.013 152.76 443.039 130.382 443.056 107.541C467.435 94.118 491.821 81.1573 516.526 68.0692C516.894 90.0966 516.999 112.252 516.874 134.405C516.865 135.921 515.492 138.113 514.139 138.833C497.511 147.674 480.773 156.308 464.055 164.978C457.175 168.546 450.273 172.072 443.184 175.378Z" fill="#9A3F16"/>
<path d="M502.925 387.461C503.225 384.59 503.818 382.152 503.852 379.707C504.105 361.401 504.248 343.093 504.846 324.664C527.851 340.344 550.435 356.145 573.021 372.418C573.045 381.331 573.067 389.773 573.088 398.215C567.607 411.579 560.87 424.113 549.33 433.737C534.872 421.872 520.81 409.869 506.551 398.104C503.074 395.235 502.768 391.779 502.925 387.461Z" fill="#403F41"/>
<path d="M125.907 327.669C124.561 319.88 122.534 311.729 122.164 303.503C120.04 256.424 134.251 214.477 163.414 177.678C170.312 168.974 178.64 161.403 186.619 153.59C187.32 172.809 187.685 191.749 188.138 210.687C188.188 212.805 188.732 214.911 189.048 217.023C188.411 218.792 188.233 220.981 187.062 222.261C180.083 229.883 171.99 236.649 165.951 244.928C156.947 257.273 148.165 270.062 141.474 283.731C135.17 296.61 131.695 310.874 126.972 324.527C126.655 325.445 126.318 326.357 125.907 327.669Z" fill="#E74D0F"/>
<path d="M370.393 474.869C367.546 465.08 364.938 455.172 362.5 445.222C360.487 437.006 358.896 428.68 356.674 420.524C355.688 416.906 356.817 415.103 359.674 413.192C371.949 404.979 384.097 396.577 396.651 388.555C397.39 404.915 397.768 420.963 398.146 437.011C398.096 442.339 398.301 447.688 397.862 452.983C397.703 454.908 396.473 457.361 394.936 458.451C387.001 464.078 378.808 469.341 370.393 474.869Z" fill="#58595B"/>
<path d="M403.915 260.307C429.548 245.369 455.181 230.431 480.989 215.187C481.458 221.945 481.752 229.008 482.102 236.537C480.878 238.432 479.831 240.21 478.285 241.237C453.806 257.506 429.264 273.678 404.393 289.518C404.005 279.545 403.96 269.926 403.915 260.307Z" fill="#585756"/>
<path d="M398.425 437.202C397.768 420.963 397.39 404.915 396.948 388.398C388.851 375.127 380.765 362.357 372.81 349.506C370.031 345.018 367.573 340.332 364.964 334.903C365.018 328.364 365.076 322.659 365.135 316.953C373.144 328.811 381.168 340.659 389.155 352.531C395.289 361.648 401.377 370.796 407.764 380.156C407.703 403.307 407.364 426.233 407.04 449.636C404.271 445.872 401.487 441.632 398.425 437.202Z" fill="#9A4016"/>
<path d="M189.367 216.778C188.732 214.911 188.188 212.805 188.137 210.687C187.685 191.749 187.32 172.809 186.884 153.397C190.071 138.16 193.301 123.395 196.945 108.612C200.293 110.764 203.228 112.934 206.162 115.104C206.114 115.803 206.066 116.502 206.037 117.551C202.393 140.315 198.728 162.728 195.108 185.585C193.331 196.197 191.509 206.365 189.367 216.778Z" fill="#9A3F16"/>
<path d="M690.952 271.677C690.558 270.941 690.189 269.829 689.871 268.352C690.274 269.092 690.626 270.197 690.952 271.677Z" fill="#9A3F16"/>
<path d="M689.771 266.87C689.422 266.708 689.171 266.228 688.887 265.474C689.193 265.65 689.53 266.101 689.771 266.87Z" fill="#9A3F16"/>
<path d="M403.61 260.142C403.96 269.926 404.005 279.545 404.073 289.638C400.361 292.42 396.625 294.728 392.305 296.762C374.635 283.994 357.59 271.441 340.444 259.031C332.444 253.241 324.246 247.726 316.138 242.086C314.032 234.665 311.706 227.298 309.871 219.81C307.167 208.785 304.813 197.673 303.159 185.719C336.541 210.472 369.923 235.224 403.61 260.142Z" fill="#403F41"/>
<path d="M573.406 398.084C573.067 389.773 573.045 381.331 573.31 372.249C596.012 356.376 618.428 341.143 640.887 326.376C640.689 333.003 640.448 339.164 640.207 345.326C624.728 357.645 609.263 369.981 593.765 382.275C587.121 387.546 580.407 392.73 573.406 398.084Z" fill="#585856"/>
<path d="M640.521 345.183C640.448 339.164 640.689 333.003 640.831 326.047C639.24 323.966 637.825 322.575 636.244 321.407C622.511 311.261 608.748 301.154 594.994 291.036C595.622 289.141 596.25 287.246 597.117 285.051C613.181 296.531 629.017 308.299 644.827 320.101C649.305 323.443 653.708 326.885 658.95 330.896C652.472 335.955 646.654 340.498 640.521 345.183Z" fill="#9B4117"/>
<path d="M206.507 115.046C203.228 112.934 200.293 110.764 197.172 108.319C212.795 97.7032 228.577 87.3156 244.43 77.0379C253.328 71.2688 262.345 65.6815 271.666 59.9888C272.05 63.3061 272.076 66.6469 272.106 70.4386C252.601 84.1849 233.098 97.4883 213.576 110.764C211.389 112.252 209.096 113.584 206.507 115.046Z" fill="#8C3402"/>
<path d="M594.671 290.925C608.748 301.154 622.511 311.261 636.244 321.407C637.825 322.575 639.24 323.966 640.788 325.582C618.428 341.143 596.012 356.376 573.307 371.777C550.435 356.145 527.851 340.344 505.028 324.302C511.396 319.349 517.951 314.562 524.621 309.94C539.775 299.437 555.03 289.078 570.133 278.502C572.822 276.62 574.677 276.228 577.458 278.463C582.889 282.827 588.696 286.723 594.671 290.925Z" fill="#9E9D9D"/>
</g>
<defs>
<clipPath id="clip0_231_2">
<rect width="1920" height="716" fill="white"/>
</clipPath>
</defs>
</svg>
